<svg xmlns="http://www.w3.org/2000/svg" viewBox="0 0 238.72 58.45"><defs><style>.cls-1{fill:#c296c5;}.cls-2{fill:#92278f;stroke:#92278f;stroke-miterlimit:10;}</style></defs><title>Asset 1</title><g id="Layer_2" data-name="Layer 2"><g id="Layer_1-2" data-name="Layer 1"><path class="cls-1" d="M49.21,58.45,0,34.44l49.21-24v5.52L11.26,34.44l38,18.5Z"/><path class="cls-1" d="M189.52,52.94l37.94-18.5-37.94-18.5V10.42l49.2,24-49.2,24Z"/><path class="cls-2" d="M82.85,49.51H77.41L76.71,45a25.84,25.84,0,0,1-5.24,3.81,14,14,0,0,1-6.32,1.43,14.42,14.42,0,0,1-11-4.7,15.87,15.87,0,0,1-4.42-11.3A15.43,15.43,0,0,1,54.23,23a14.75,14.75,0,0,1,11.06-4.6,15.4,15.4,0,0,1,9.25,3,11.9,11.9,0,0,1,5.25,8Zm-28-15.25a10.62,10.62,0,0,0,3,7.73,10.2,10.2,0,0,0,7.59,3.1A9.75,9.75,0,0,0,72.77,42a10.5,10.5,0,0,0,3-7.55,11.09,11.09,0,0,0-2.93-7.76,9.71,9.71,0,0,0-7.49-3.2,10,10,0,0,0-7.52,3.16A10.68,10.68,0,0,0,54.8,34.26Z"/><path class="cls-2" d="M94,49.51H88.65V.5H94Z"/><path class="cls-2" d="M131.83,34.94l-.07,1.57H109.91c-2.22,0-3.33.58-3.33,1.75s1,2.66,3.13,4.6a9.2,9.2,0,0,0,6.53,2.5q3.48,0,7.63-3.2L127,45.83a14.56,14.56,0,0,1-10.69,4.43,15.08,15.08,0,0,1-11.13-4.56,15.24,15.24,0,0,1-4.53-11.17A16.13,16.13,0,0,1,105,23.17a14.39,14.39,0,0,1,11-4.7,15.16,15.16,0,0,1,11.33,4.92A15.15,15.15,0,0,1,131.83,34.94Zm-8.17-3.33c1.41,0,2.11-.43,2.11-1.3s-.59-2-1.77-3.47A9.22,9.22,0,0,0,116.45,23a9.75,9.75,0,0,0-4.33,1.1,9,9,0,0,0-3.43,2.81,6.78,6.78,0,0,0-1.57,3.5,1.19,1.19,0,0,0,.82,1.17h15.72Z"/><path class="cls-2" d="M143,49.51h-5.24V.5H143V26.91q0,4.29,2.13,4.29c.83,0,1.84-.77,3-2.32l7.43-9.73h7.08l-12,13.92,12,16.44h-6.42l-9.73-13.27a2.19,2.19,0,0,0-1.87-1c-1.11,0-1.67.64-1.67,1.91Z"/><path class="cls-2" d="M163.7,42.7l4.36-2.58a9.18,9.18,0,0,0,2.32,3.81,5.54,5.54,0,0,0,3.94,1.84,5.4,5.4,0,0,0,3.78-1.54,4.78,4.78,0,0,0,1.67-3.64c0-1.81-1.05-3.33-3.13-4.56a46.49,46.49,0,0,0-5.58-2.31A7.71,7.71,0,0,1,167.48,31a7,7,0,0,1-1.39-4.23A7.84,7.84,0,0,1,168.57,21a8.17,8.17,0,0,1,5.89-2.41q4.29,0,7.08,4.42l-3.81,2.39A3.21,3.21,0,0,0,174.46,23a3.56,3.56,0,0,0-2.48,1,3.05,3.05,0,0,0-1.06,2.38,3.32,3.32,0,0,0,1.5,2.79,52.06,52.06,0,0,0,5.38,2.25q7,2.72,7,8.57a9.88,9.88,0,0,1-3.07,7.49,10.6,10.6,0,0,1-7.62,2.93Q168.2,50.33,163.7,42.7Z"/></g></g></svg>