<svg xmlns="http://www.w3.org/2000/svg" viewBox="0 0 270.32 134.94"><defs><style>.cls-1{fill:#92278f;}.cls-2,.cls-3{fill:#fff;}.cls-3{font-size:44px;font-family:Dekar-Light, Dekar Light;letter-spacing:0.03em;}.cls-4{letter-spacing:-0.06em;}.cls-5{letter-spacing:0.01em;}.cls-6{letter-spacing:0.03em;}.cls-7{letter-spacing:0.03em;}.cls-8{letter-spacing:0.03em;}.cls-9{letter-spacing:0.02em;}.cls-10{letter-spacing:0.01em;}.cls-11{letter-spacing:0.02em;}.cls-12{letter-spacing:0.01em;}.cls-13{letter-spacing:0.02em;}.cls-14{letter-spacing:0.01em;}.cls-15{letter-spacing:0.02em;}.cls-16{letter-spacing:0.03em;}</style></defs><title>Asset 2</title><g id="Layer_2" data-name="Layer 2"><g id="Layer_1-2" data-name="Layer 1"><path class="cls-1" d="M270.32,0H74.56l0,.05H69.18l-.06,0L67,2.8c0,.23.11.34.35.34Q39.27,63.36,38.57,65.62H27.47q-.43,0-4.52,6.6v.69H34.76c0,.55-18.59,40.14-34.76,58.09H23.65v0H270.32Z"/><path class="cls-2" d="M14.47,125.24C29.13,109,46,73,46,72.55H35.29v-.63c2.46-4,3.83-6,4.09-6H49.46q.63-2,26.13-56.67A.29.29,0,0,1,75.27,9l1.89-2.52q.95.87,24.88,59.51h4.72q12.58,0,12.59-6.61v-.95c-.42-2.88-.63-4.46-.63-4.72h2.84q.7,0,12.27,30.54H131q-6.93-11.64-16.69-11.65h-9.44v.32q4.72,10.93,21.72,52.58H97.32q0-3.32-19.83-52.9H54.18c-.79,1.1-4.53,8.7-11.57,25.48-7.65,18.22-6.69,27.21-6.69,27.21ZM57,65.94H75c-3.36-8.13-3.45-7.87-8.28-20.52C66.33,46.05,65.69,45.93,57,65.94Z"/><text class="cls-3" transform="translate(114.89 101.13)"> <tspan class="cls-4" x="11.88" y="0"> </tspan><tspan class="cls-5" x="19.49" y="0">l</tspan><tspan class="cls-6" x="28.68" y="0">e</tspan><tspan class="cls-7" x="49.59" y="0">k</tspan><tspan class="cls-8" x="70.85" y="0">s</tspan><tspan x="0" y="24"> </tspan><tspan class="cls-9" x="11.88" y="24">c</tspan><tspan class="cls-10" x="32.77" y="24">r</tspan><tspan class="cls-11" x="46.49" y="24">e</tspan><tspan class="cls-12" x="67.05" y="24">a</tspan><tspan class="cls-13" x="87.51" y="24">t</tspan><tspan class="cls-14" x="100.81" y="24">i</tspan><tspan class="cls-15" x="107.69" y="24">v</tspan><tspan class="cls-16" x="128.76" y="24">e</tspan></text></g></g></svg>